<?xml version="1.0" encoding="iso-8859-1"?>
<!-- Generator: Adobe Illustrator 19.0.0, SVG Export Plug-In . SVG Version: 6.00 Build 0)  -->
<svg version="1.1" id="Layer_1" xmlns="http://www.w3.org/2000/svg" xmlns:xlink="http://www.w3.org/1999/xlink" x="0px" y="0px"
	 viewBox="0 0 491.52 491.52" style="enable-background:new 0 0 491.52 491.52;" xml:space="preserve">
<g>
	<g>
		<path d="M67.99,0.03c-7.301,0-13.157,5.78-13.157,12.929v53.995c0,7.149,5.856,12.929,13.157,12.929
			c7.225,0,13.081-5.78,13.081-12.929V12.959C81.072,5.81,75.215,0.03,67.99,0.03z" fill="#fe7117"/>
	</g>
</g>
<g>
	<g>
		<path d="M375.008,39.956h-18.314V66.95c0,15.733-12.902,28.534-28.762,28.534c-15.813,0-28.682-12.8-28.682-28.534V39.956H96.676
			V66.95c0,15.733-12.869,28.534-28.686,28.534c-15.859,0-28.762-12.8-28.762-28.534V39.956H20.915C9.355,39.956,0,49.16,0,60.492
			v49.571h395.923V60.492C395.923,49.16,386.569,39.956,375.008,39.956z" fill="#fe7117"/>
	</g>
</g>
<g>
	<g>
		<path d="M327.933,0.03c-7.225,0-13.08,5.78-13.08,12.929v53.995c0,7.149,5.855,12.929,13.08,12.929
			c7.302,0,13.158-5.78,13.158-12.929V12.959C341.091,5.81,335.235,0.03,327.933,0.03z" fill="#fe7117"/>
	</g>
</g>
<g>
	<g>
		<path d="M344.957,238.592c-58.633,0-106.335,47.702-106.335,106.338c0,58.629,47.702,106.331,106.335,106.331
			c58.635,0,106.338-47.702,106.338-106.331C451.295,286.294,403.592,238.592,344.957,238.592z M257.423,350.098
			c-2.855,0-5.169-2.314-5.169-5.169c0-2.855,2.315-5.169,5.169-5.169s5.169,2.314,5.169,5.169
			C262.592,347.784,260.277,350.098,257.423,350.098z M344.957,252.224c2.855,0,5.169,2.314,5.169,5.169
			c0,2.855-2.314,5.169-5.169,5.169c-2.855,0-5.169-2.314-5.169-5.169C339.788,254.538,342.102,252.224,344.957,252.224z
			 M344.957,437.633c-2.855,0-5.169-2.313-5.169-5.169c0-2.855,2.315-5.169,5.169-5.169c2.855,0,5.169,2.314,5.169,5.169
			C350.127,435.32,347.813,437.633,344.957,437.633z M399.206,398.378c-0.449,0.449-1.038,0.674-1.627,0.674
			c-0.589,0-1.178-0.224-1.627-0.674l-44.929-44.93c-1.716,1.227-3.8,1.965-6.066,1.965c-4.121,0-7.659-2.412-9.372-5.881h-41.459
			c-2.544,0-4.603-2.059-4.603-4.605c0-2.543,2.059-4.602,4.603-4.602h41.459c0.248-0.502,0.681-0.863,1.001-1.313l-7.668-7.668
			c-0.899-0.9-0.899-2.356,0-3.256c0.899-0.899,2.355-0.899,3.255,0l7.857,7.857c0.503-0.276,0.925-0.677,1.476-0.869v-54.312
			c0-1.907,1.547-3.451,3.452-3.451c1.906,0,3.454,1.544,3.454,3.451v54.312c4.08,1.434,7.031,5.286,7.031,9.851
			c0,1.848-0.521,3.558-1.363,5.067l45.127,45.128C400.105,396.022,400.105,397.479,399.206,398.378z M432.494,350.098
			c-2.856,0-5.171-2.314-5.171-5.169c0-2.855,2.315-5.169,5.171-5.169c2.855,0,5.169,2.314,5.169,5.169
			C437.663,347.784,435.348,350.098,432.494,350.098z" fill="#fe7117"/>
	</g>
</g>
<g>
	<g>
		<path d="M344.957,339.051c-0.539,0-1.023,0.171-1.519,0.309c-0.787,0.215-1.502,0.579-2.114,1.063
			c-0.005,0.004-0.008,0.005-0.008,0.005c-0.617,0.491-1.127,1.102-1.502,1.812c-0.43,0.817-0.736,1.704-0.736,2.689
			c0,3.242,2.639,5.883,5.88,5.883c0.986,0,1.873-0.306,2.69-0.737c0.71-0.375,1.323-0.886,1.811-1.501
			c0.002-0.002,0.004-0.005,0.004-0.005c0.487-0.614,0.851-1.331,1.068-2.121c0.137-0.495,0.308-0.98,0.308-1.519
			C350.838,341.689,348.199,339.051,344.957,339.051z" fill="#fe7117"/>
	</g>
</g>
<g>
	<g>
		<path d="M344.957,198.371c-80.815,0-146.56,65.745-146.56,146.559c0,80.815,65.745,146.56,146.56,146.56
			c80.814,0,146.563-65.745,146.563-146.56C491.52,264.116,425.772,198.371,344.957,198.371z M344.957,466.866
			c-67.238,0-121.939-54.697-121.939-121.935s54.701-121.942,121.939-121.942s121.942,54.705,121.942,121.942
			C466.899,412.169,412.195,466.866,344.957,466.866z" fill="#fe7117"/>
	</g>
</g>
<g>
	<g>
		<path d="M0.036,125.678v249.631c0,11.353,9.336,20.557,20.853,20.557h170.223c-5.326-16.039-8.318-33.132-8.318-50.936
			c0-12.318,1.504-24.273,4.118-35.812h-7.313v-36.733h20.535c4.109-8.168,8.884-15.918,14.262-23.228h-34.797v-36.733h36.733
			v34.144c8.445-11.015,18.228-20.91,29.171-29.444v-4.7h6.281c17.639-12.44,37.799-21.509,59.624-26.12v-33.841h36.733v30.468
			c16.653,0.326,32.682,3.152,47.753,8.155v-65.408H0.036z M84.523,369.081H47.789v-36.733h36.734V369.081z M84.523,309.119H47.789
			v-36.734h36.734V309.119z M84.523,249.157H47.789v-36.733h36.734V249.157z M150.428,369.081h-36.734v-36.733h36.734V369.081z
			 M150.428,309.119h-36.734v-36.734h36.734V309.119z M150.428,249.157h-36.734v-36.733h36.734V249.157z M216.332,189.194h-36.733
			v-36.733h36.733V189.194z M282.236,189.194h-36.733v-36.733h36.733V189.194z" fill="#fe7117"/>
	</g>
</g>
<g>
</g>
<g>
</g>
<g>
</g>
<g>
</g>
<g>
</g>
<g>
</g>
<g>
</g>
<g>
</g>
<g>
</g>
<g>
</g>
<g>
</g>
<g>
</g>
<g>
</g>
<g>
</g>
<g>
</g>
</svg>
