<?xml version="1.0" encoding="iso-8859-1"?>
<!-- Generator: Adobe Illustrator 16.0.0, SVG Export Plug-In . SVG Version: 6.00 Build 0)  -->
<!DOCTYPE svg PUBLIC "-//W3C//DTD SVG 1.1//EN" "http://www.w3.org/Graphics/SVG/1.1/DTD/svg11.dtd">
<svg version="1.1" id="Capa_1" xmlns="http://www.w3.org/2000/svg" xmlns:xlink="http://www.w3.org/1999/xlink" x="0px" y="0px"
	 viewBox="0 0 63.883 63.883" style="enable-background:new 0 0 63.883 63.883;"
	 xml:space="preserve">
<g>
	<g>
		<path d="M10.104,61.11v1.042h1.042h2.604h1.072l-0.031-1.07c-0.006-0.216-0.607-21.445-0.607-23.062
			c0-0.335,0.161-1.087,0.519-1.703c0.562-0.97,1.208-0.976,1.424-0.976c0.001,0,0.002,0,0.004,0c0.837,0,2.741,0.646,6.084,4.966
			c2.809,3.63,4.507,8.036,6.005,11.927c2.409,6.25,4.489,11.648,10.174,11.648c0.587,0,1.212-0.062,1.854-0.187
			c10.054-1.923,19.151-7.452,19.533-7.687l0.309-0.189l0.125-0.337c0.2-0.548,0.875-2.477,1.141-4.426l-0.164,0.041
			c-0.045,0.01-0.18,0.045-0.385,0.094c-0.146,0.034-0.332,0.079-0.554,0.132c-3.102,0.732-13.117,2.967-19.801,2.967
			c-2.644,0-4.474-0.351-5.597-1.071c-1.632-1.048-3.332-3.397-5.484-6.373C24.965,40.753,18.93,32.408,9.325,29.378
			c-2.485-0.785-4.277-1.749-5.44-2.909c-0.34-0.339-0.63-0.694-0.86-1.068c-0.176-0.285-0.332-0.578-0.444-0.885
			c-0.216-0.581-0.312-1.177-0.313-1.784c-0.064,1.1,0.004,4.299,2.511,7.432C7.176,33.163,10.104,56.83,10.104,61.11z" fill="#fe7117"/>
		<path d="M2.502,20.966l-0.009,0.065c0.005-0.021,0.008-0.043,0.014-0.063L2.502,20.966z" fill="#fe7117"/>
		<path d="M9.637,28.385c14.583,4.601,21.18,21.007,25.781,23.958c1.017,0.652,2.826,0.905,5.034,0.905
			c6.828,0,17.435-2.431,19.941-3.03c0.318-0.076,0.5-0.121,0.532-0.129c0.003-0.001,0.014-0.003,0.014-0.003
			c0.217-0.463,0.364-0.882,0.479-1.283c1.278-4.412-3.379-5.278-10.462-6.79c-7.727-1.649-8.159-13.368-8.247-26.216
			c-0.085-12.847,0.153-13.129-2.19-13.584c-2.344-0.455-4.036-0.911-14.779-1.302C14.997,0.521,13.566,0,13.566,0
			C10.028,0.435,11.2,4.688,11.2,4.688c-0.696,6.371-6.666,12.145-7.727,16.715c-0.042,0.179-0.071,0.354-0.098,0.528
			c-0.036,0.237-0.054,0.47-0.058,0.701C3.28,24.934,4.875,26.882,9.637,28.385z" fill="#fe7117"/>
	</g>
</g>
<g>
</g>
<g>
</g>
<g>
</g>
<g>
</g>
<g>
</g>
<g>
</g>
<g>
</g>
<g>
</g>
<g>
</g>
<g>
</g>
<g>
</g>
<g>
</g>
<g>
</g>
<g>
</g>
<g>
</g>
</svg>
